<svg xmlns="http://www.w3.org/2000/svg" xmlns:xlink="http://www.w3.org/1999/xlink" viewBox="0,0,256,256" width="480px" height="480px"><g fill="none" fill-rule="nonzero" stroke="none" stroke-width="1" stroke-linecap="butt" stroke-linejoin="miter" stroke-miterlimit="10" stroke-dasharray="" stroke-dashoffset="0" font-family="none" font-weight="none" font-size="none" text-anchor="none" style="mix-blend-mode: normal"><g transform="scale(3.2,3.2)"><path d="M74.01,62.5c-1.795,0 -3.517,-0.852 -4.607,-2.277l-11.596,-15.163l-11.596,15.163c-1.09,1.426 -2.812,2.277 -4.607,2.277h-3.428l16.484,-21.556l-16.399,-21.444h3.428c1.795,0 3.518,0.851 4.607,2.276l11.51,15.052l11.51,-15.052c1.09,-1.426 2.812,-2.276 4.607,-2.276h3.428l-16.397,21.444l16.484,21.556z" fill="#b0c1d4"></path><path d="M76.341,20l-16.017,20.944l16.102,21.056h-2.416c-1.651,0 -3.207,-0.769 -4.21,-2.081l-11.993,-15.682l-11.993,15.682c-1.003,1.312 -2.56,2.081 -4.21,2.081h-2.417l16.102,-21.056l-16.016,-20.944h2.417c1.651,0 3.207,0.769 4.21,2.081l11.907,15.571l11.907,-15.571c1.003,-1.312 2.559,-2.081 4.21,-2.081h2.417M78.364,19h-2.024h-2.417c-1.949,0 -3.82,0.925 -5.005,2.473l-11.111,14.532l-11.113,-14.532c-1.184,-1.548 -3.055,-2.473 -5.005,-2.473h-2.417h-2.024l1.229,1.607l15.553,20.337l-15.637,20.449l-1.23,1.607h2.024h2.417c1.949,0 3.82,-0.925 5.005,-2.473l11.198,-14.644l11.198,14.644c1.184,1.548 3.055,2.473 5.005,2.473h2.417h2.024l-1.229,-1.607l-15.639,-20.449l15.552,-20.337l1.229,-1.607z" fill="#66798f"></path><g><path d="M20,64.5c-10.201,0 -18.5,-8.594 -18.5,-19.156v-8.689c0,-10.562 8.299,-19.155 18.5,-19.155c10.201,0 18.5,8.593 18.5,19.154v7.845l-32,0.001v0.844c0,7.806 6.056,14.156 13.5,14.156c4.111,0 8.093,-2.067 10.653,-5.529c1.161,-1.571 2.86,-2.472 4.661,-2.472h1.711l0.204,0.204l0.134,0.268l-0.075,0.203c-2.717,7.373 -9.664,12.326 -17.288,12.326zM33.5,39.5v-2.846c0,-7.804 -6.056,-14.154 -13.5,-14.154c-7.444,0 -13.5,6.35 -13.5,14.155v2.845z" fill="#b0c1d4"></path><path d="M20,18c9.925,0 18,8.369 18,18.654v7.345l-32,0.001v1.344c0,8.082 6.28,14.656 14,14.656c4.376,0 8.446,-2.203 11.055,-5.732c1.016,-1.374 2.55,-2.269 4.259,-2.269h1.505c0,0.001 0,0.001 0,0.002c-2.644,7.175 -9.408,11.999 -16.819,11.999c-9.925,0 -18,-8.369 -18,-18.656v-8.689c0,-10.286 8.075,-18.655 18,-18.655M6,40h28v-3.346c0,-8.08 -6.28,-14.654 -14,-14.654c-7.72,0 -14,6.574 -14,14.654v3.346M20,17c-10.477,0 -19,8.817 -19,19.654v8.689c0,10.839 8.523,19.657 19,19.657c7.832,0 14.968,-5.085 17.758,-12.653l0.496,-1.346l-1.435,-0.002h-1.505c-1.961,0 -3.806,0.975 -5.063,2.675c-2.466,3.335 -6.298,5.326 -10.251,5.326c-7.168,0 -13,-6.126 -13,-13.656v-0.344l31,-0.001h1v-1v-7.345c0,-10.837 -8.523,-19.654 -19,-19.654zM7,39v-2.346c0,-7.529 5.832,-13.654 13,-13.654c7.168,0 13,6.125 13,13.654v2.346h-26z" fill="#66798f"></path></g></g></g></svg>